<?xml version="1.0" encoding="utf-8"?>
<!-- Generator: Adobe Illustrator 15.1.0, SVG Export Plug-In . SVG Version: 6.00 Build 0)  -->
<!DOCTYPE svg PUBLIC "-//W3C//DTD SVG 1.1//EN" "http://www.w3.org/Graphics/SVG/1.1/DTD/svg11.dtd">
<svg version="1.1" id="Layer_1" xmlns="http://www.w3.org/2000/svg" xmlns:xlink="http://www.w3.org/1999/xlink" x="0px" y="0px"
	 width="78.083px" height="78.083px" viewBox="0 0 78.083 78.083" enable-background="new 0 0 78.083 78.083" xml:space="preserve">
<path fill="#00173F" d="M78.083,66.083c0,6.628-5.372,12-12,12H12c-6.627,0-12-5.372-12-12V12C0,5.373,5.373,0,12,0h54.083
	c6.628,0,12,5.373,12,12V66.083z"/>
<path fill="#FFFFFF" d="M58.451,43.146c0,0-4.588,3.877-8.879,5.43l6.908,10.746h12.916L58.451,43.146z"/>
<path fill="#FFFFFF" d="M66.176,22.81c-2.342-1.7-4.934-0.287-5.838,1.307c-0.832,1.472-0.971,3.801,0.775,5.234
	c0.934,0.763,2.658,0.688,2.416,1.295c0,0-8.043,17.354-33.717,13.989l8.584-14.708l7.084,11.499c0,0,5.939-1.717,9.082-4.479
	L43.813,18.76H32.688l-24,40.563H21c0,0,1.93-7.027,8.099-8.088c0.924-0.158,25.929-0.785,37.718-21.537l0.007-0.003
	c0.071-0.118,0.132-0.229,0.196-0.343c0.027-0.049,0.058-0.095,0.085-0.145l-0.003,0.001c0.014-0.025,0.031-0.053,0.045-0.078
	C67.936,27.641,68.582,24.554,66.176,22.81z"/>
</svg>
