<?xml version="1.0" encoding="utf-8"?>
<!-- Generator: Adobe Illustrator 15.1.0, SVG Export Plug-In . SVG Version: 6.00 Build 0)  -->
<!DOCTYPE svg PUBLIC "-//W3C//DTD SVG 1.1//EN" "http://www.w3.org/Graphics/SVG/1.1/DTD/svg11.dtd">
<svg version="1.1" id="Layer_1" xmlns="http://www.w3.org/2000/svg" xmlns:xlink="http://www.w3.org/1999/xlink" x="0px" y="0px"
	 width="837.435px" height="201.639px" viewBox="0 0 837.435 201.639" enable-background="new 0 0 837.435 201.639"
	 xml:space="preserve">
<g>
	<g>
		<g>
			<polygon fill="#FFFFFF" points="56,0 116.668,0 91.708,82.881 201.5,0 260,0 0,201.639 			"/>
			<polygon fill="#FFFFFF" points="227.883,170 153.697,93.426 111.896,124.338 154.514,170 			"/>
			<path fill="#FFFFFF" d="M276.307,66.637L245.74,77.783L231.073,170H261c0,0,5.846-37.039,9.209-62.658
				c3.363-25.623,39.137-19.487,39.137-19.487l6.115-21.035c0,0-24.459-5.665-39.748,6.571L276.307,66.637z"/>
			<polygon fill="#FFFFFF" points="332.801,68 317.907,170 348,170 362.854,68 			"/>
			<polygon fill="#FFFFFF" points="339.548,31.201 336.111,56 365,56 370.05,31.765 			"/>
			<path fill="#FFFFFF" d="M391.56,167.355c12.894-1.411,29.573-6.658,41.452-10.876l1.082-5.374c0,0-31.188,9.844-26.906-22.661
				c4.281-32.504,6.727-42.849,6.727-42.849l28.129-0.32L445,68h-28l4.863-36.652L391.9,39.795L387,68h-9l-2.305,18H385
				c0,0-4.719,28.574-7.776,50.371C375.357,149.678,378.41,161.652,391.56,167.355z"/>
		</g>
	</g>
	<polygon fill="#FFFFFF" points="659.548,31.201 656.111,56 685,56 690.05,31.765 	"/>
	<path fill="#FFFFFF" d="M509.002,65.43c-45.251-0.644-56.564,22.059-62.373,53.078c-2.756,14.713-1.518,24.916,1.911,32.277
		l27.156-9.198c-2.643-8.028-0.021-17.389-0.021-17.389l66.96-1.53C551.302,96.756,554.254,66.073,509.002,65.43z M522,109h-44
		c0,0,3.791-25.258,28.25-24.874C530.711,84.507,522,109,522,109z"/>
	<path fill="#FFFFFF" d="M595.713,73.391l0.594-6.754L565.74,77.783l-6.395,40.208c7.123-1.52,20.006-4.103,30.136-5.213
		c0.252-1.854,0.496-3.675,0.728-5.437c3.363-25.623,39.137-19.487,39.137-19.487l6.115-21.035
		C635.461,66.819,611.002,61.154,595.713,73.391z"/>
	<path fill="#FFFFFF" d="M677.594,104.118L682.854,68h-30.053l-5.647,38.676C654.263,105.813,667.358,104.374,677.594,104.118z"/>
	<path fill="#FFFFFF" d="M747.768,91.068c15.474,1.836,22.026,5.66,23.389,13.479c7.762,0.671,22.097,1.854,29.86,2.143
		c1.298-14.069-5.027-27.118-16.495-32.131c-12.272-5.362-52.075-9.72-87.246,4.035l8.078,19.181
		C705.354,97.775,728.475,88.779,747.768,91.068z"/>
	<path fill="#FFFFFF" d="M837.254,101.525c-1.204-6.805-8.066-8.596-12.298-7.336c-3.89,1.157-8.059,4.913-7.546,10.248
		c0.274,2.863,3.336,5.619,1.887,6.267c-3.521,1.569-26.081,0.827-33.828,0.416c-55.208-3.185-150.754-4.6-242.509,15.114
		c-82.285,17.68-164.521,71.376-179.934,34.236c0,0-8.149,41.051,101.614,6.057c0.315,0.166,0.629,0.341,0.945,0.501
		c12.842,6.5,68.794,0,68.794,0l3.975-19.503c0,0-7.969,2.296-22.372,3.91c13.458-3.525,26.67-6.659,39.546-9.447L551.073,170H581
		c0,0,2.516-15.941,5.195-34.141c20.66-3.793,40.141-6.699,58-8.925L637.907,170H668l6.758-46.407
		c8.161-0.766,15.815-1.384,22.893-1.88c-10.717,6.724-15.323,15.759-14.75,22.743c0.715,8.688,10.157,27.731,41.019,26.037
		c30.845-1.694,45.148-16.122,45.148-16.122l0.693,14.107l25.271-0.183c0,0,0.001-0.011,4.579-47.476
		c7.894-0.368,21.832-1.384,29.39-3.819C832.936,115.732,838.513,108.608,837.254,101.525z M752.469,147.658
		c-9.926,4.961-29.154,3.565-33.652-2.018c-4.498-5.582-2.172-15.196,5.584-18.92c7.754-3.721,43.267-1.705,43.267-1.705
		C768.752,135.562,762.395,142.697,752.469,147.658z"/>
</g>
</svg>
