<?xml version="1.0" encoding="utf-8"?>
<!-- Generator: Adobe Illustrator 15.1.0, SVG Export Plug-In . SVG Version: 6.00 Build 0)  -->
<!DOCTYPE svg PUBLIC "-//W3C//DTD SVG 1.1//EN" "http://www.w3.org/Graphics/SVG/1.1/DTD/svg11.dtd">
<svg version="1.1" id="Layer_1" xmlns="http://www.w3.org/2000/svg" xmlns:xlink="http://www.w3.org/1999/xlink" x="0px" y="0px"
	 width="983.919px" height="201.639px" viewBox="0 0 983.919 201.639" enable-background="new 0 0 983.919 201.639"
	 xml:space="preserve">
<g>
	<g>
		<polygon fill="#FFFFFF" points="656.114,0 636.662,124 686.75,110.75 703.809,0 		"/>
		<path fill="#FFFFFF" d="M779.506,0l-54.881,103.18c0,0,49.355-7.689,57.471-8.066l30.285-58.93l30.493,53.777l51.938-2.889
			L844.898,0H779.506z"/>
	</g>
	<path fill="#FFFFFF" d="M633,147l-4,26h48l6-39.954c9-2.565,20.869-4.675,31.558-6.882L688.393,173h56.805l22.396-43.674
		l94.364-0.707L891.456,179h56.995l-44.732-78.321c15.139-1.083,28.422-1.563,39.34-2.13c0.927-0.001,23.129,0.084,32.864-3.664
		c3.559-1.369,9.258-5.529,7.747-12.088c-1.471-6.388-7.997-7.832-11.912-6.455c-3.611,1.271-7.313,5.041-6.464,10.088
		c0.453,2.689,3.513,5.128,2.194,5.804c-3.201,1.641-24.77,2.095-32.343,2.101c-56.394-0.182-164.108,3.797-273.741,31.303
		c-107.363,26.938-200.231,94.354-250.811,56.987c0,0,15.58,50.294,161.226-12.706L633,147z"/>
	<g>
		<polygon fill="#FFFFFF" points="56,0 116.668,0 91.708,82.881 201.5,0 260,0 0,201.639 		"/>
		<polygon fill="#FFFFFF" points="227.883,170 153.697,93.426 111.896,124.338 154.514,170 		"/>
		<path fill="#FFFFFF" d="M276.307,66.637L245.74,77.783L231.073,170H261c0,0,5.846-37.039,9.209-62.658
			c3.363-25.623,39.137-19.487,39.137-19.487l6.115-21.035c0,0-24.459-5.665-39.748,6.571L276.307,66.637z"/>
		<path fill="#FFFFFF" d="M593.307,66.637l-30.566,11.04l-12.946,78.656l32.373-13.833c0,0,1.679-9.646,5.042-35.267
			s39.137-19.433,39.137-19.433l6.115-21.008c0,0-24.459-5.651-39.748,6.585L593.307,66.637z"/>
		<polygon fill="#FFFFFF" points="332.801,68 317.907,170 348,170 362.854,68 		"/>
		<path fill="#FFFFFF" d="M387,68h-9l-2.305,18H385c0,0-4.719,28.574-7.776,50.371s7.032,40.054,53.201,32.948l3.669-18.214
			c0,0-31.188,9.844-26.906-22.661c4.281-32.504,6.727-42.849,6.727-42.849l28.129-0.32L445,68h-28l4.863-36.652L391.9,39.795
			L387,68z"/>
		<path fill="#FFFFFF" d="M542.636,122.668c8.666-25.912,11.618-56.595-33.634-57.238c-45.251-0.644-56.564,22.059-62.373,53.078
			c-5.811,31.021,6.115,42.018,18.957,48.521c12.842,6.5,68.794,0,68.794,0l3.975-19.503c0,0-15.899,4.588-43.417,5.354
			c-27.518,0.765-19.262-28.681-19.262-28.681L542.636,122.668z M506.25,84.126C530.711,84.507,522,109,522,109h-44
			C478,109,481.791,83.742,506.25,84.126z"/>
		<polygon fill="#FFFFFF" points="339.548,31.201 336.111,56 365,56 370.05,31.765 		"/>
	</g>
</g>
</svg>
