<?xml version="1.0" encoding="utf-8"?>
<!-- Generator: Adobe Illustrator 15.1.0, SVG Export Plug-In . SVG Version: 6.00 Build 0)  -->
<!DOCTYPE svg PUBLIC "-//W3C//DTD SVG 1.1//EN" "http://www.w3.org/Graphics/SVG/1.1/DTD/svg11.dtd">
<svg version="1.1" id="Layer_1" xmlns="http://www.w3.org/2000/svg" xmlns:xlink="http://www.w3.org/1999/xlink" x="0px" y="0px"
	 width="432.756px" height="90.925px" viewBox="0 0 432.756 90.925" enable-background="new 0 0 432.756 90.925"
	 xml:space="preserve">
<g>
	<polygon fill="#FFFFFF" points="94.643,21.695 121.994,74.472 137.788,74.472 163.727,21.695 147.162,21.695 129.955,56.238 
		112.105,21.695 	"/>
	<path fill="#FFFFFF" d="M66.389,0H45.458L0,84.751h20.161C24.904,77.414,29.935,69.451,40.835,66
		c11.282-3.574,38.396-4.875,38.396-4.875l7.832,13.74h20.418L66.389,0z M37.371,53.285l18.362-35.698l17.335,32.745
		C60.355,50.074,37.371,53.285,37.371,53.285z"/>
	<path fill="#FFFFFF" d="M212.984,23.493c-6.363-2.568-26.01-4.623-42.961,1.926l4.238,9.502c0,0,11.428-4.495,21.188-3.339
		s12.841,3.853,12.969,10.145c0,0-23.37-0.385-32.615,3.082c-9.246,3.467-13.227,10.145-12.842,15.153
		c0.385,5.008,5.624,16.436,22.716,15.537s24.154-9.502,24.154-9.502l1.284,8.475h14.125c0,0,0-25.811,0-33.516
		S219.348,26.061,212.984,23.493z M200.344,63.072c-5.334,2.666-15.666,1.916-18.083-1.084s-1.167-8.166,3-10.167
		c4.167-2,23.25-0.917,23.25-0.917C209.094,56.572,205.678,60.406,200.344,63.072z"/>
	<polygon fill="#FFFFFF" points="238.927,1.571 255.511,1.571 255.511,64.738 238.927,70.738 	"/>
</g>
<g>
	<polygon fill="#FFFFFF" points="278.094,1.571 299.761,1.571 299.761,51.321 278.094,57.238 	"/>
	<path fill="#FFFFFF" d="M318.26,47.321c0,0,21.794-3.396,25.377-3.562l13.373-26.021l13.465,23.747l22.935-1.275L371.26,1.571
		h-28.666L318.26,47.321z"/>
</g>
<path fill="#FFFFFF" d="M432.646,38.321c-0.649-2.821-3.531-3.458-5.26-2.851c-1.595,0.561-3.229,2.226-2.854,4.455
	c0.2,1.188,1.551,2.264,0.969,2.563c-1.413,0.725-10.938,0.925-14.281,0.928c-24.901-0.081-72.465,1.677-120.875,13.822
	c-47.408,11.895-88.416,41.75-110.75,25.25c0,0,6.879,22.232,71.192-5.488H272v-8.09c2.599-0.946,5-1.728,6-2.166V78h22V60.509
	c4-1.133,9.155-2.14,13.875-3.115L302.261,78h25.083l9.89-19.209l41.668-0.175L391.927,81h25.167l-19.752-34.684
	c6.685-0.479,12.55-0.74,17.371-0.99c0.409,0,10.213,0.012,14.512-1.643C430.796,43.079,433.313,41.217,432.646,38.321z"/>
</svg>
