<?xml version="1.0" encoding="utf-8"?>
<!-- Generator: Adobe Illustrator 15.1.0, SVG Export Plug-In . SVG Version: 6.00 Build 0)  -->
<!DOCTYPE svg PUBLIC "-//W3C//DTD SVG 1.1//EN" "http://www.w3.org/Graphics/SVG/1.1/DTD/svg11.dtd">
<svg version="1.1" id="Layer_1" xmlns="http://www.w3.org/2000/svg" xmlns:xlink="http://www.w3.org/1999/xlink" x="0px" y="0px"
	 width="432.756px" height="90.925px" viewBox="0 0 432.756 90.925" enable-background="new 0 0 432.756 90.925"
	 xml:space="preserve">
<g>
	<linearGradient id="SVGID_1_" gradientUnits="userSpaceOnUse" x1="115.8755" y1="-1.5693" x2="132.542" y2="29.0977">
		<stop  offset="0" style="stop-color:#1A1A1A"/>
		<stop  offset="1" style="stop-color:#333333"/>
	</linearGradient>
	<polygon fill="url(#SVGID_1_)" points="94.643,21.695 121.994,74.472 137.788,74.472 163.727,21.695 147.162,21.695 
		129.955,56.238 112.105,21.695 	"/>
	<linearGradient id="SVGID_2_" gradientUnits="userSpaceOnUse" x1="33.7661" y1="43.0542" x2="50.4326" y2="73.7212">
		<stop  offset="0" style="stop-color:#1A1A1A"/>
		<stop  offset="1" style="stop-color:#333333"/>
	</linearGradient>
	<path fill="url(#SVGID_2_)" d="M66.389,0H45.458L0,84.751h20.161C24.904,77.414,29.935,69.451,40.835,66
		c11.282-3.574,38.396-4.875,38.396-4.875l7.832,13.74h20.418L66.389,0z M37.371,53.285l18.362-35.698l17.335,32.745
		C60.355,50.074,37.371,53.285,37.371,53.285z"/>
	<linearGradient id="SVGID_3_" gradientUnits="userSpaceOnUse" x1="154.8232" y1="-22.7363" x2="171.4897" y2="7.9307">
		<stop  offset="0" style="stop-color:#1A1A1A"/>
		<stop  offset="1" style="stop-color:#333333"/>
	</linearGradient>
	<path fill="url(#SVGID_3_)" d="M212.984,23.493c-6.363-2.568-26.01-4.623-42.961,1.926l4.238,9.502c0,0,11.428-4.495,21.188-3.339
		s12.841,3.853,12.969,10.145c0,0-23.37-0.385-32.615,3.082c-9.246,3.467-13.227,10.145-12.842,15.153
		c0.385,5.008,5.624,16.436,22.716,15.537s24.154-9.502,24.154-9.502l1.284,8.475h14.125c0,0,0-25.811,0-33.516
		S219.348,26.061,212.984,23.493z M200.344,63.072c-5.334,2.666-15.666,1.916-18.083-1.084s-1.167-8.166,3-10.167
		c4.167-2,23.25-0.917,23.25-0.917C209.094,56.572,205.678,60.406,200.344,63.072z"/>
	<linearGradient id="SVGID_4_" gradientUnits="userSpaceOnUse" x1="201.4438" y1="-48.0732" x2="218.1104" y2="-17.4063">
		<stop  offset="0" style="stop-color:#1A1A1A"/>
		<stop  offset="1" style="stop-color:#333333"/>
	</linearGradient>
	<polygon fill="url(#SVGID_4_)" points="238.927,1.571 255.511,1.571 255.511,64.738 238.927,70.738 	"/>
</g>
<g>
	<linearGradient id="SVGID_5_" gradientUnits="userSpaceOnUse" x1="286.8735" y1="5.6201" x2="290.8735" y2="51.9536">
		<stop  offset="0" style="stop-color:#0081F0"/>
		<stop  offset="0.2183" style="stop-color:#007DEC"/>
		<stop  offset="0.45" style="stop-color:#0070E1"/>
		<stop  offset="0.6878" style="stop-color:#005BCF"/>
		<stop  offset="0.9283" style="stop-color:#003DB6"/>
		<stop  offset="1" style="stop-color:#0033AD"/>
	</linearGradient>
	<polygon fill="url(#SVGID_5_)" points="278.094,1.571 299.761,1.571 299.761,51.321 278.094,57.238 	"/>
	<linearGradient id="SVGID_6_" gradientUnits="userSpaceOnUse" x1="352.0552" y1="-0.0068" x2="356.0552" y2="46.3267">
		<stop  offset="0" style="stop-color:#0081F0"/>
		<stop  offset="0.2183" style="stop-color:#007DEC"/>
		<stop  offset="0.45" style="stop-color:#0070E1"/>
		<stop  offset="0.6878" style="stop-color:#005BCF"/>
		<stop  offset="0.9283" style="stop-color:#003DB6"/>
		<stop  offset="1" style="stop-color:#0033AD"/>
	</linearGradient>
	<path fill="url(#SVGID_6_)" d="M318.26,47.321c0,0,21.794-3.396,25.377-3.562l13.373-26.021l13.465,23.747l22.935-1.275
		L371.26,1.571h-28.666L318.26,47.321z"/>
</g>
<linearGradient id="SVGID_7_" gradientUnits="userSpaceOnUse" x1="303.4336" y1="53.4014" x2="319.6777" y2="95.3914">
	<stop  offset="0" style="stop-color:#00173F"/>
	<stop  offset="0.5" style="stop-color:#0033AD"/>
	<stop  offset="1" style="stop-color:#810CFA"/>
</linearGradient>
<path fill="url(#SVGID_7_)" d="M432.646,38.321c-0.649-2.821-3.531-3.458-5.26-2.851c-1.595,0.561-3.229,2.226-2.854,4.455
	c0.2,1.188,1.551,2.264,0.969,2.563c-1.413,0.725-10.938,0.925-14.281,0.928l0,0c-24.901-0.081-72.465,1.677-120.875,13.822
	c-47.408,11.895-88.416,41.75-110.75,25.25c0,0,6.893,22.287,71.418-5.584c4.454-1.924,22.145-8.498,27.082-10.16v11.162h21.667
	V60.509c4.597-1.133,9.274-2.188,13.994-3.162l-11.494,20.559h25.083l9.89-19.162l41.668,0.01l13.025,22.568h25.167l-19.752-34.844
	c6.685-0.479,12.55-0.821,17.371-1.071c0.409,0,10.213-0.028,14.512-1.684C430.796,43.119,433.313,41.217,432.646,38.321z"/>
</svg>
